<svg width="211px" height="211px" viewBox="-6.4 -6.4 76.80 76.80" xmlns="http://www.w3.org/2000/svg" fill="none" stroke="#ffffff" stroke-width="4.864" transform="rotate(0)"><g id="SVGRepo_bgCarrier" stroke-width="0" transform="translate(0.9600000000000009,0.9600000000000009), scale(0.97)"><rect x="-6.4" y="-6.4" width="76.80" height="76.80" rx="9.984" fill="#000000" strokewidth="0"></rect></g><g id="SVGRepo_tracerCarrier" stroke-linecap="round" stroke-linejoin="round" stroke="#CCCCCC" stroke-width="0.128"></g><g id="SVGRepo_iconCarrier"><path d="M20 56a8 8 0 0 1-8-8V36l-4-4 4-4V16a8 8 0 0 1 8-8"></path><path d="M44 8a8 8 0 0 1 8 8v12l4 4-4 4v12a8 8 0 0 1-8 8"></path><line x1="20" y1="32" x2="24" y2="32"></line><line x1="30" y1="32" x2="34" y2="32"></line><line x1="40" y1="32" x2="44" y2="32"></line></g></svg>